# xmcd
#
# Track frame offsets:
# 150
# 12406
# 29246
# 45555
# 66274
# 80170
# 102882
# 122703
# 135689
# 154328
#
# Disc length: 2374 seconds
#
# Revision: 0
# Processed by: cddbd v1.5.1PL0 Copyright (c) Steve Scherf et al.
# Submitted via: Audion 3.0.2 (http://www.panic.com/audion/)
#
DISCID=8d09440a
DTITLE=Soda and His Million Piece Band - Soda and His Million Piece Band
DYEAR=1900
DGENRE=
TTITLE0=You Cheat
TTITLE1=July
TTITLE2=Mystery Song
TTITLE3=Liza Jane
TTITLE4=Lakeshore (Letter for Early)
TTITLE5=Christine
TTITLE6=Dirty Old Town
TTITLE7=Moonlight Drive
TTITLE8=Sinnerman
TTITLE9=Cabbagetown Breakdown - W.D.Y.L.
EXTD=
EXTT0=
EXTT1=
EXTT2=
EXTT3=
EXTT4=
EXTT5=
EXTT6=
EXTT7=
EXTT8=
EXTT9=
PLAYORDER=
